<svg width="512" height="512" viewBox="0 0 512 512" fill="none" xmlns="http://www.w3.org/2000/svg">
  <rect width="512" height="512" rx="88" fill="#07111F"/>
  <path d="M116 336V176H184.5C223.6 176 250 193.4 250 226.4C250 255.2 226.8 273.8 189.8 273.8H150.3V336H116ZM150.3 245.3H182.7C206.8 245.3 220 237.4 220 225.3C220 212.9 206.8 205.1 184.3 205.1H150.3V245.3Z" fill="#F0A154"/>
  <path d="M265 176H299.5L354.7 285.1H355.4L351.5 176H383.2V336H349.1L293.5 226.7H293.1L297.4 336H265.8V176H265Z" fill="#F5F8FC"/>
  <path d="M260 343L177 170H210L297 343H260Z" fill="#F0A154" fill-opacity="0.9"/>
  <path d="M138 365C152.5 334.2 182 314 217.5 314H308.5C366.9 314 414 361.1 414 419.5V419.5C414 442.5 395.5 461 372.5 461H156C132.8 461 114 442.2 114 419V418.7C114 400.4 128 385.9 146.2 385.9H138V365Z" fill="#DCEAF9" fill-opacity="0.08"/>
</svg>
